<?xml version="1.0" encoding="UTF-8" standalone="no"?>
<!DOCTYPE svg PUBLIC "-//W3C//DTD SVG 20010904//EN"
              "http://www.w3.org/TR/2001/REC-SVG-20010904/DTD/svg10.dtd">

<svg xmlns="http://www.w3.org/2000/svg"
     width="1.99975in" height="1.99975in"
     viewBox="0 0 144 144">
  <path id="Selection"
        fill="black" stroke="black" stroke-width="1"
        d="M 92.59,30.00
           C 97.40,21.31 99.42,18.52 110.00,18.00
             109.06,24.75 102.14,32.61 98.35,39.00
             97.14,41.05 94.02,45.03 95.81,47.40
             97.08,49.09 100.16,48.96 102.00,48.67
             108.91,47.59 107.62,45.10 119.00,45.00
             118.99,47.02 119.12,50.11 118.40,51.96
             114.21,62.78 95.93,58.47 90.01,61.09
             82.12,64.58 72.32,80.79 70.00,89.00
             70.00,89.00 100.00,86.99 100.00,86.99
             105.84,86.85 109.18,84.58 113.00,90.00
             103.27,94.94 86.85,98.17 76.00,100.20
             68.44,101.61 62.90,100.19 57.10,106.06
             52.61,110.61 51.92,114.57 43.99,120.56
             41.91,122.12 38.97,124.35 36.28,122.92
             28.61,118.85 40.53,109.65 40.35,104.00
             40.25,100.66 36.69,95.14 35.22,92.00
             35.22,92.00 27.48,72.00 27.48,72.00
             25.47,67.51 23.19,61.66 29.11,59.01
             33.05,57.24 36.03,58.25 37.94,62.06
             37.94,62.06 45.78,87.00 45.78,87.00
             46.62,89.31 47.98,94.96 51.06,94.96
             55.24,94.96 58.22,86.47 57.72,83.00
             57.25,79.68 54.44,75.30 53.05,72.01
             53.05,72.01 48.90,60.00 48.90,60.00
             47.91,57.63 45.20,53.20 45.56,50.91
             46.65,43.92 58.23,40.77 60.16,46.28
             60.87,47.76 60.06,52.94 60.16,55.00
             59.85,62.44 60.37,70.65 66.00,76.00
             69.06,68.11 76.61,61.62 77.64,56.00
             79.80,44.33 71.62,35.26 72.15,27.01
             72.47,21.90 75.30,20.32 80.00,21.00
             78.26,28.42 79.73,37.22 87.00,41.00
             87.00,41.00 92.59,30.00 92.59,30.00 Z" />
</svg>
